<svg width="512" height="512" viewBox="0 0 512 512" fill="none" xmlns="http://www.w3.org/2000/svg">
<path d="M115.568 340.5C97.5684 340.5 81.5684 338 67.5684 333C53.5684 327.833 42.485 320.417 34.3184 310.75C26.3184 301.083 22.3184 289.417 22.3184 275.75C22.3184 261.417 26.3184 249.417 34.3184 239.75C42.485 230.083 53.5684 222.833 67.5684 218C81.5684 213.167 97.5684 210.75 115.568 210.75C130.568 210.75 144.068 212.333 156.068 215.5C168.068 218.5 178.318 222.917 186.818 228.75C195.318 234.417 201.818 241.25 206.318 249.25C210.818 257.25 213.068 266.083 213.068 275.75C213.068 285.417 210.818 294.25 206.318 302.25C201.818 310.083 195.318 316.917 186.818 322.75C178.318 328.417 168.068 332.833 156.068 336C144.068 339 130.568 340.5 115.568 340.5ZM138.068 302.5C150.735 302.5 162.318 301.75 172.818 300.25C183.485 298.583 191.985 295.833 198.318 292C204.818 288.167 208.068 282.75 208.068 275.75C208.068 268.583 204.818 263.083 198.318 259.25C191.985 255.417 183.485 252.75 172.818 251.25C162.318 249.75 150.735 249 138.068 249C121.068 249 107.902 251.25 98.5684 255.75C89.235 260.083 84.5684 266.75 84.5684 275.75C84.5684 281.583 86.6517 286.5 90.8184 290.5C94.985 294.5 101.068 297.5 109.068 299.5C117.068 301.5 126.735 302.5 138.068 302.5ZM208.068 164.5H268.068V337H211.568C210.902 333.167 210.152 327 209.318 318.5C208.485 309.833 208.068 300.167 208.068 289.5V164.5ZM297.982 293H353.232C355.566 297.333 359.982 300.333 366.482 302C373.149 303.667 382.649 304.5 394.982 304.5C404.482 304.5 411.482 304 415.982 303C420.649 302 423.649 300.667 424.982 299C426.482 297.333 427.232 295.583 427.232 293.75C427.232 290.917 425.649 289 422.482 288C419.482 286.833 414.316 286.167 406.982 286C399.649 285.667 389.566 285.5 376.732 285.5C364.566 285.5 353.649 285 343.982 284C334.482 282.833 326.399 281.083 319.732 278.75C313.066 276.25 307.982 272.833 304.482 268.5C300.982 264.167 299.232 258.75 299.232 252.25C299.232 244.25 301.816 237.583 306.982 232.25C312.149 226.75 319.149 222.5 327.982 219.5C336.816 216.333 346.982 214.083 358.482 212.75C370.149 211.417 382.316 210.75 394.982 210.75C415.982 210.75 433.149 212.917 446.482 217.25C459.816 221.417 469.649 227.083 475.982 234.25C482.316 241.417 485.399 249.5 485.232 258.5H431.482C429.649 254.167 426.149 251.167 420.982 249.5C415.982 247.833 407.316 247 394.982 247C383.316 247 374.816 247.917 369.482 249.75C364.316 251.417 361.732 254.167 361.732 258C361.732 260.5 362.982 262.417 365.482 263.75C368.149 264.917 373.066 265.75 380.232 266.25C387.566 266.75 398.232 267 412.232 267C421.899 267 431.316 267.333 440.482 268C449.816 268.667 458.149 270.083 465.482 272.25C472.982 274.417 478.899 277.75 483.232 282.25C487.566 286.75 489.732 292.917 489.732 300.75C489.732 310.25 485.816 318 477.982 324C470.316 329.833 459.399 334.083 445.232 336.75C431.066 339.417 414.316 340.75 394.982 340.75C378.149 340.75 363.899 339.667 352.232 337.5C340.732 335.333 331.316 332.5 323.982 329C316.649 325.333 310.982 321.417 306.982 317.25C303.149 312.917 300.566 308.667 299.232 304.5C298.066 300.167 297.649 296.333 297.982 293Z" fill="#ADEB03"/>
</svg>
